<?xml version="1.0" standalone="no"?>
<!DOCTYPE svg PUBLIC "-//W3C//DTD SVG 20010904//EN"
 "http://www.w3.org/TR/2001/REC-SVG-20010904/DTD/svg10.dtd">
<svg version="1.0" xmlns="http://www.w3.org/2000/svg"
 width="640.000000pt" height="640.000000pt" viewBox="0 0 640.000000 640.000000"
 preserveAspectRatio="xMidYMid meet">
<metadata>
Created by potrace 1.14, written by Peter Selinger 2001-2017
</metadata>
<g transform="translate(0.000000,640.000000) scale(0.100000,-0.100000)"
fill="#000000" stroke="none">
<path d="M2477 5244 c-1 -1 -28 -5 -59 -8 -32 -3 -86 -10 -120 -17 -35 -6 -70
-12 -78 -13 -9 -1 -21 -5 -28 -10 -6 -4 -12 -5 -12 -1 0 3 -15 -1 -34 -9 -19
-8 -37 -12 -39 -9 -3 2 -20 -2 -39 -10 -18 -8 -73 -29 -123 -47 -99 -36 -239
-107 -343 -174 -168 -108 -364 -290 -474 -440 -21 -28 -42 -56 -47 -63 -70
-82 -246 -450 -255 -533 -1 -9 -5 -20 -8 -25 -11 -19 -45 -190 -54 -270 -3
-27 -7 -61 -10 -75 -10 -58 -3 -336 11 -420 13 -81 26 -147 35 -180 96 -359
252 -637 496 -884 47 -47 164 -150 182 -160 9 -5 19 -12 22 -16 16 -22 201
-135 300 -183 103 -49 282 -117 350 -131 127 -28 186 -38 295 -52 51 -6 298
-6 345 0 25 4 65 8 90 11 53 5 57 6 175 34 134 32 275 84 413 153 67 34 122
64 122 67 0 3 12 12 28 19 35 16 163 111 249 187 79 69 183 184 259 287 29 40
57 78 61 84 17 23 34 50 43 72 l10 22 548 0 c383 0 559 -3 583 -11 109 -37
153 -179 82 -268 -59 -73 -59 -73 -471 -73 -411 0 -435 -3 -516 -68 -39 -31
-83 -90 -85 -113 0 -4 -7 -20 -14 -35 -11 -21 -14 -98 -15 -362 0 -184 -1
-345 -1 -357 l-1 -21 -1741 0 c-957 0 -1742 -2 -1744 -4 -2 -1 -5 -30 -6 -63
l-3 -60 2370 0 2369 0 1 58 c1 32 -3 60 -8 63 -5 3 -256 6 -558 6 -553 0 -557
0 -550 33 5 23 0 216 -5 225 -3 6 -3 10 2 10 8 0 9 107 1 115 -2 3 -1 30 2 60
3 31 3 58 0 60 -4 2 -4 24 0 48 3 24 3 52 0 62 -4 10 -2 40 3 66 13 65 62 123
119 138 28 7 177 12 418 13 l375 3 60 33 c75 40 118 92 144 170 55 164 -39
346 -203 389 -11 3 -253 7 -536 9 -283 1 -523 3 -533 3 -17 1 -17 3 -1 33 18
35 91 234 98 270 3 13 10 41 15 63 6 22 13 56 16 75 3 19 8 42 10 50 13 46 19
155 19 310 -1 182 -5 243 -23 332 -6 29 -12 63 -14 75 -2 12 -6 26 -10 29 -4
4 -7 15 -7 25 0 29 -70 228 -112 319 -41 90 -124 236 -145 258 -7 8 -18 23
-25 35 -32 61 -211 259 -315 349 -152 131 -381 264 -574 333 -57 20 -111 38
-119 40 -8 2 -42 10 -75 18 -56 15 -128 29 -220 43 -39 6 -362 13 -368 8z"/>
</g>
</svg>
